<svg class="icon" style="width: 1em;height: 1em;vertical-align: middle;fill: currentColor;overflow: hidden;"
  viewBox="0 0 1024 1024" version="1.1" xmlns="http://www.w3.org/2000/svg" p-id="9118">
  <path
    d="M594.944 0l335.124 341.32v563.2c0 65.996-52.5 119.48-117.294 119.48H209.546c-64.793 0-117.299-53.53-117.299-119.48V119.48C92.252 53.484 144.757 0 209.551 0h385.393z"
    fill="#627CFE" p-id="9119"></path>
  <path d="M930.068 341.32H718.152c-64.748 0-123.208-59.49-123.208-125.492V0l335.124 341.32z" fill="#FFFFFF"
    fill-opacity=".4" p-id="9120"></path>
  <path d="M519.68 606.628v66.422l120.832 73.4V533.407z" fill="#FFFFFF" opacity=".99" p-id="9121"></path>
  <path
    d="M534.528 512.138H282.25a22.482 22.482 0 0 0-22.297 22.62v210.53c0 12.38 9.917 22.666 22.251 22.666h252.508a22.482 22.482 0 0 0 22.252-22.666V534.574a22.62 22.62 0 0 0-22.436-22.436zM356.25 719.36V560.548l127.078 79.4L356.25 719.36z"
    fill="#FFFFFF" opacity=".99" p-id="9122"></path>
</svg>